<?xml version="1.0" encoding="UTF-8"?>
<svg version="1.1" xmlns="http://www.w3.org/2000/svg" width="64" height="64">
<path d="M0 0 C2.625 -0.1875 2.625 -0.1875 5 0 C5.66 1.98 6.32 3.96 7 6 C7.58265625 5.6390625 8.1653125 5.278125 8.765625 4.90625 C15.53958081 1.07193539 21.25379481 -0.19172388 29 1 C31.9887095 2.05928944 34.26827556 3.33061284 37 5 C37.66 5.33 38.32 5.66 39 6 C39.66 4.02 40.32 2.04 41 0 C42.65 0 44.3 0 46 0 C47.0625 1.8125 47.0625 1.8125 48 4 C47.67 4.99 47.34 5.98 47 7 C45.02 7.33 43.04 7.66 41 8 C41.66 9.03125 42.32 10.0625 43 11.125 C45.9716597 17.04716879 45.83255493 23.53457346 45 30 C42.10741549 36.64340839 38.90071872 41.14756724 32.28125 44.22265625 C28.2696578 45.58962003 24.20301025 45.7461269 20 46 C15.78441045 46.54514171 15.78441045 46.54514171 11.875 48.0625 C10 49 10 49 6 49 C6.13019531 48.43152344 6.26039062 47.86304688 6.39453125 47.27734375 C7.2907657 42.50089812 7.2907657 42.50089812 5.98828125 37.94921875 C5.10779607 36.7710337 4.18863308 35.62037457 3.2265625 34.5078125 C-0.6782597 29.70761705 0.50981771 21.77396546 1 16 C2.02160881 12.91732887 3.23589503 10.75641402 5 8 C2.03 7.505 2.03 7.505 -1 7 C-1.625 5.1875 -1.625 5.1875 -2 3 C-1.34 2.01 -0.68 1.02 0 0 Z M1 2 C1 2.99 1 3.98 1 5 C1.99 5 2.98 5 4 5 C4 4.01 4 3.02 4 2 C3.01 2 2.02 2 1 2 Z M42 2 C42 2.99 42 3.98 42 5 C42.99 5 43.98 5 45 5 C45 4.01 45 3.02 45 2 C44.01 2 43.02 2 42 2 Z M5.9375 11.625 C3.77416534 15.39338941 2.86753349 17.91954298 2.9375 22.1875 C2.958125 23.445625 2.97875 24.70375 3 26 C4.32 26 5.64 26 7 26 C6.125 30.75 6.125 30.75 5 33 C6.65 32.67 8.3 32.34 10 32 C10.93423645 35.01031744 11.04449911 35.86650268 10 39 C9.96079185 40.99961564 9.95556653 43.00049364 10 45 C10.68320312 44.84144531 11.36640625 44.68289062 12.0703125 44.51953125 C15.35887163 43.9363601 18.53843987 43.81526762 21.875 43.6875 C27.74129744 43.31777537 31.29041986 42.47611867 36 39 C35.505 36.03 35.505 36.03 35 33 C37.49092811 31.75453595 38.41080733 32.2232422 41 33 C40.34 32.01 39.68 31.02 39 30 C39 28.68 39 27.36 39 26 C40.32 26 41.64 26 43 26 C43.36445586 18.95385339 42.45819276 14.94983131 37.8125 9.375 C32.90058827 5.22716343 27.82071755 2.15964689 21.14453125 2.5546875 C15.06260665 3.81760081 9.64605896 6.57664373 5.9375 11.625 Z M8 34 C7.67 34.66 7.34 35.32 7 36 C7.66 36 8.32 36 9 36 C8.67 35.34 8.34 34.68 8 34 Z M37 34 C37 34.66 37 35.32 37 36 C37.66 35.67 38.32 35.34 39 35 C38.34 34.67 37.68 34.34 37 34 Z " fill="#876D72" transform="translate(9,7)"/>
<path d="M0 0 C1.09763672 -0.01224609 2.19527344 -0.02449219 3.32617188 -0.03710938 C4.91075195 -0.04000977 4.91075195 -0.04000977 6.52734375 -0.04296875 C7.492771 -0.04707764 8.45819824 -0.05118652 9.45288086 -0.05541992 C12.16873672 0.19738919 13.78334029 0.71290214 16.0625 2.1875 C17.58741998 5.23733996 17.29812548 7.8298369 17.0625 11.1875 C15.94140625 12.88525391 15.94140625 12.88525391 14.0625 14.1875 C11.19921875 14.57568359 11.19921875 14.57568359 7.75 14.5859375 C6.50992188 14.58980469 5.26984375 14.59367187 3.9921875 14.59765625 C2.04699219 14.58025391 2.04699219 14.58025391 0.0625 14.5625 C-1.23429687 14.57410156 -2.53109375 14.58570313 -3.8671875 14.59765625 C-5.10726563 14.59378906 -6.34734375 14.58992188 -7.625 14.5859375 C-8.76324219 14.58255371 -9.90148437 14.57916992 -11.07421875 14.57568359 C-13.9375 14.1875 -13.9375 14.1875 -15.8125 12.88134766 C-17.68809904 10.05736629 -17.23014454 7.46511882 -16.9375 4.1875 C-13.08938622 -1.58467067 -6.3240696 0.00370045 0 0 Z M-7.9375 3.1875 C-7.6075 5.4975 -7.2775 7.8075 -6.9375 10.1875 C-8.5875 10.5175 -10.2375 10.8475 -11.9375 11.1875 C-11.9375 11.5175 -11.9375 11.8475 -11.9375 12.1875 C-4.0175 12.1875 3.9025 12.1875 12.0625 12.1875 C12.0625 11.8575 12.0625 11.5275 12.0625 11.1875 C9.5875 10.6925 9.5875 10.6925 7.0625 10.1875 C6.9375 5.4375 6.9375 5.4375 8.0625 3.1875 C2.7825 3.1875 -2.4975 3.1875 -7.9375 3.1875 Z M-14.9375 5.1875 C-14.9375 6.8375 -14.9375 8.4875 -14.9375 10.1875 C-13.9475 10.6825 -13.9475 10.6825 -12.9375 11.1875 C-13.2675 9.2075 -13.5975 7.2275 -13.9375 5.1875 C-14.2675 5.1875 -14.5975 5.1875 -14.9375 5.1875 Z M14.0625 5.1875 C13.7325 7.1675 13.4025 9.1475 13.0625 11.1875 C13.7225 10.8575 14.3825 10.5275 15.0625 10.1875 C15.0625 8.5375 15.0625 6.8875 15.0625 5.1875 C14.7325 5.1875 14.4025 5.1875 14.0625 5.1875 Z M-10.9375 6.1875 C-10.9375 7.1775 -10.9375 8.1675 -10.9375 9.1875 C-9.9475 8.8575 -8.9575 8.5275 -7.9375 8.1875 C-7.9375 7.5275 -7.9375 6.8675 -7.9375 6.1875 C-8.9275 6.1875 -9.9175 6.1875 -10.9375 6.1875 Z M8.0625 6.1875 C8.3925 7.1775 8.7225 8.1675 9.0625 9.1875 C10.0525 8.8575 11.0425 8.5275 12.0625 8.1875 C11.7325 7.5275 11.4025 6.8675 11.0625 6.1875 C10.0725 6.1875 9.0825 6.1875 8.0625 6.1875 Z " fill="#ED9BBB" transform="translate(31.9375,19.8125)"/>
<path d="M0 0 C2.625 -0.1875 2.625 -0.1875 5 0 C5.66 1.98 6.32 3.96 7 6 C8.11375 5.319375 9.2275 4.63875 10.375 3.9375 C12.2734375 2.77734375 12.2734375 2.77734375 14 2 C14.66 2.33 15.32 2.66 16 3 C16 3.66 16 4.32 16 5 C14.9275 5.53625 13.855 6.0725 12.75 6.625 C8.92138749 8.86029094 6.99166376 10.94290715 5 15 C4.12078724 18.64245288 3.50197308 22.28804116 3 26 C4.32 25.67 5.64 25.34 7 25 C8.125 29.75 8.125 29.75 7 32 C7.99 31.67 8.98 31.34 10 31 C10.66 31.66 11.32 32.32 12 33 C11.8125 35.0625 11.8125 35.0625 11 37 C9.515 37.495 9.515 37.495 8 38 C8 37.01 8 36.02 8 35 C6.02 35.495 6.02 35.495 4 36 C0.21321459 29.39070345 0.19464967 23.46008728 1 16 C2.03142818 12.92804073 3.23973515 10.75041383 5 8 C2.03 7.505 2.03 7.505 -1 7 C-1.625 5.1875 -1.625 5.1875 -2 3 C-1.34 2.01 -0.68 1.02 0 0 Z M1 2 C1 2.99 1 3.98 1 5 C1.99 5 2.98 5 4 5 C4 4.01 4 3.02 4 2 C3.01 2 2.02 2 1 2 Z " fill="#876B71" transform="translate(9,7)"/>
<path d="M0 0 C0.99 0.33 1.98 0.66 3 1 C3 1.66 3 2.32 3 3 C3.99 3.33 4.98 3.66 6 4 C5.67 5.98 5.34 7.96 5 10 C5.61875 9.67 6.2375 9.34 6.875 9 C11.26211512 7.59612316 15.43151427 7.84032477 20 8 C19.67 8.99 19.34 9.98 19 11 C17.989375 10.938125 16.97875 10.87625 15.9375 10.8125 C11.62406285 11.01790177 8.89938494 12.23424078 5 14 C3.68 14 2.36 14 1 14 C1.09539063 13.37351562 1.19078125 12.74703125 1.2890625 12.1015625 C1.39992188 11.28429688 1.51078125 10.46703125 1.625 9.625 C1.74101562 8.81289063 1.85703125 8.00078125 1.9765625 7.1640625 C1.98429688 6.44992188 1.99203125 5.73578125 2 5 C1.34 4.34 0.68 3.68 0 3 C0 2.01 0 1.02 0 0 Z " fill="#8B696E" transform="translate(14,42)"/>
<path d="M0 0 C3.625 0.375 3.625 0.375 7 1 C6.41661146 4.93787261 4.75728395 7.17201647 2 10 C-2.44242299 12.84163517 -6.71779502 14.4717795 -12 15 C-11 12 -11 12 -8.71484375 10.83203125 C-7.79832031 10.49558594 -6.88179687 10.15914062 -5.9375 9.8125 C-5.01839844 9.46832031 -4.09929688 9.12414063 -3.15234375 8.76953125 C-2.44207031 8.51558594 -1.73179688 8.26164062 -1 8 C-1.20625 7.05125 -1.4125 6.1025 -1.625 5.125 C-1.74875 4.09375 -1.8725 3.0625 -2 2 C-1.34 1.34 -0.68 0.68 0 0 Z M1 3 C1 3.66 1 4.32 1 5 C1.66 4.67 2.32 4.34 3 4 C2.34 3.67 1.68 3.34 1 3 Z " fill="#8D6B70" transform="translate(45,38)"/>
<path d="M0 0 C-0.33 1.65 -0.66 3.3 -1 5 C-0.01 5 0.98 5 2 5 C2.66 5.66 3.32 6.32 4 7 C3.8125 9.0625 3.8125 9.0625 3 11 C2.01 11.33 1.02 11.66 0 12 C0 11.01 0 10.02 0 9 C-1.32 9.33 -2.64 9.66 -4 10 C-6.03435531 6.27034861 -7 4.33094958 -7 0 C-3.98968256 -0.93423645 -3.13349732 -1.04449911 0 0 Z " fill="#8B757C" transform="translate(17,33)"/>
<path d="M0 0 C3.96 0 7.92 0 12 0 C11.6875 2.875 11.6875 2.875 11 6 C8 8 8 8 4.9375 7.8125 C2 7 2 7 0 4 C0 2.68 0 1.36 0 0 Z M2 2 C2.99 3.485 2.99 3.485 4 5 C6.47266765 4.65555119 6.47266765 4.65555119 9 4 C9.33 3.34 9.66 2.68 10 2 C7.36 2 4.72 2 2 2 Z " fill="#836E75" transform="translate(26,37)"/>
<path d="M0 0 C2.625 0.375 2.625 0.375 5 1 C6.125 5.75 6.125 5.75 5 8 C3.00045254 8.04254356 0.99958364 8.04080783 -1 8 C-2 7 -2 7 -2.1875 4.5625 C-2 2 -2 2 0 0 Z M0 3 C0.33 3.99 0.66 4.98 1 6 C1.99 5.67 2.98 5.34 4 5 C3.67 4.34 3.34 3.68 3 3 C2.01 3 1.02 3 0 3 Z " fill="#836F74" transform="translate(40,23)"/>
<path d="M0 0 C1.875 0.6875 1.875 0.6875 2.875 1.6875 C3 4.1875 3 4.1875 2.875 6.6875 C1.875 7.6875 1.875 7.6875 -1.1875 7.75 C-2.156875 7.729375 -3.12625 7.70875 -4.125 7.6875 C-4.455 5.7075 -4.785 3.7275 -5.125 1.6875 C-2.125 -0.3125 -2.125 -0.3125 0 0 Z M-2.125 2.6875 C-2.125 3.6775 -2.125 4.6675 -2.125 5.6875 C-1.135 5.3575 -0.145 5.0275 0.875 4.6875 C0.875 4.0275 0.875 3.3675 0.875 2.6875 C-0.115 2.6875 -1.105 2.6875 -2.125 2.6875 Z " fill="#836F75" transform="translate(23.125,23.3125)"/>
<path d="M0 0 C2.475 0.99 2.475 0.99 5 2 C4 4 4 4 2 5 C2 5.66 2 6.32 2 7 C0.68 6.34 -0.64 5.68 -2 5 C-1.125 1.125 -1.125 1.125 0 0 Z " fill="#EAE4F0" transform="translate(45,38)"/>
<path d="M0 0 C0.99 0.66 1.98 1.32 3 2 C2.6875 3.9375 2.6875 3.9375 2 6 C1.01 6.33 0.02 6.66 -1 7 C-1 6.01 -1 5.02 -1 4 C-1.99 3.67 -2.98 3.34 -4 3 C-2.68 2.01 -1.36 1.02 0 0 Z " fill="#EAE4F0" transform="translate(18,38)"/>
<path d="M0 0 C1.98 0.495 1.98 0.495 4 1 C3.67 2.98 3.34 4.96 3 7 C1.68 6.34 0.36 5.68 -1 5 C-0.67 3.35 -0.34 1.7 0 0 Z " fill="#E9E6EF" transform="translate(48,32)"/>
<path d="M0 0 C0.99 0.33 1.98 0.66 3 1 C2.67 2.65 2.34 4.3 2 6 C1.01 6.33 0.02 6.66 -1 7 C-1.33 5.02 -1.66 3.04 -2 1 C-1.34 0.67 -0.68 0.34 0 0 Z " fill="#E8E6EF" transform="translate(14,32)"/>
<path d="M0 0 C0 0.66 0 1.32 0 2 C-2.97 2.66 -5.94 3.32 -9 4 C-8.67 3.01 -8.34 2.02 -8 1 C-2.59770115 -1.29885057 -2.59770115 -1.29885057 0 0 Z " fill="#836F75" transform="translate(42,49)"/>
<path d="M0 0 C0.66 0 1.32 0 2 0 C2 2.31 2 4.62 2 7 C1.34 7 0.68 7 0 7 C0 4.69 0 2.38 0 0 Z " fill="#EBE8F2" transform="translate(35,12)"/>
<path d="M0 0 C0.66 0 1.32 0 2 0 C2 2.31 2 4.62 2 7 C1.34 7 0.68 7 0 7 C0 4.69 0 2.38 0 0 Z " fill="#EBE8F2" transform="translate(27,12)"/>
<path d="M0 0 C0.66 0 1.32 0 2 0 C2 2.31 2 4.62 2 7 C1.34 7 0.68 7 0 7 C0 4.69 0 2.38 0 0 Z " fill="#EBE5F1" transform="translate(31,12)"/>
</svg>
